<mxfile host="app.diagrams.net" modified="2022-07-31T10:31:20.560Z" agent="5.0 (Macintosh; Intel Mac OS X 10_15_7) AppleWebKit/537.36 (KHTML, like Gecko) Chrome/103.0.5060.114 Safari/537.36 OPR/89.0.4447.64" etag="fQHZkEc4KiE4bu0YPqnU" version="20.2.2" type="github">
  <diagram id="C5RBs43oDa-KdzZeNtuy" name="Page-1">
    <mxGraphModel dx="1357" dy="558" grid="1" gridSize="10" guides="1" tooltips="1" connect="1" arrows="1" fold="1" page="1" pageScale="1" pageWidth="827" pageHeight="1169" math="0" shadow="0">
      <root>
        <mxCell id="WIyWlLk6GJQsqaUBKTNV-0" />
        <mxCell id="WIyWlLk6GJQsqaUBKTNV-1" parent="WIyWlLk6GJQsqaUBKTNV-0" />
        <mxCell id="WIyWlLk6GJQsqaUBKTNV-3" value="Radice&lt;br&gt;n_osservazioni = 30" style="rounded=1;whiteSpace=wrap;html=1;fontSize=12;glass=0;strokeWidth=1;shadow=0;" parent="WIyWlLk6GJQsqaUBKTNV-1" vertex="1">
          <mxGeometry x="765" y="60" width="130" height="60" as="geometry" />
        </mxCell>
        <mxCell id="EAKEIVe63g321pClov08-9" style="edgeStyle=orthogonalEdgeStyle;rounded=0;orthogonalLoop=1;jettySize=auto;html=1;exitX=0.5;exitY=1;exitDx=0;exitDy=0;entryX=0.5;entryY=0;entryDx=0;entryDy=0;" edge="1" parent="WIyWlLk6GJQsqaUBKTNV-1" source="usrwLXrlUhz5lu5bTeia-4" target="usrwLXrlUhz5lu5bTeia-8">
          <mxGeometry relative="1" as="geometry" />
        </mxCell>
        <mxCell id="EAKEIVe63g321pClov08-10" style="edgeStyle=orthogonalEdgeStyle;rounded=0;orthogonalLoop=1;jettySize=auto;html=1;exitX=0.5;exitY=1;exitDx=0;exitDy=0;entryX=0.5;entryY=0;entryDx=0;entryDy=0;" edge="1" parent="WIyWlLk6GJQsqaUBKTNV-1" source="usrwLXrlUhz5lu5bTeia-4" target="usrwLXrlUhz5lu5bTeia-9">
          <mxGeometry relative="1" as="geometry" />
        </mxCell>
        <mxCell id="usrwLXrlUhz5lu5bTeia-4" value="Nodo&lt;br&gt;n_osservazioni = 15" style="rounded=1;whiteSpace=wrap;html=1;fontSize=12;glass=0;strokeWidth=1;shadow=0;" vertex="1" parent="WIyWlLk6GJQsqaUBKTNV-1">
          <mxGeometry x="460" y="180" width="130" height="60" as="geometry" />
        </mxCell>
        <mxCell id="EAKEIVe63g321pClov08-15" style="edgeStyle=orthogonalEdgeStyle;rounded=0;orthogonalLoop=1;jettySize=auto;html=1;exitX=0.5;exitY=1;exitDx=0;exitDy=0;entryX=0.5;entryY=0;entryDx=0;entryDy=0;" edge="1" parent="WIyWlLk6GJQsqaUBKTNV-1" source="usrwLXrlUhz5lu5bTeia-5" target="usrwLXrlUhz5lu5bTeia-11">
          <mxGeometry relative="1" as="geometry" />
        </mxCell>
        <mxCell id="EAKEIVe63g321pClov08-16" style="edgeStyle=orthogonalEdgeStyle;rounded=0;orthogonalLoop=1;jettySize=auto;html=1;exitX=0.5;exitY=1;exitDx=0;exitDy=0;entryX=0.5;entryY=0;entryDx=0;entryDy=0;" edge="1" parent="WIyWlLk6GJQsqaUBKTNV-1" source="usrwLXrlUhz5lu5bTeia-5" target="usrwLXrlUhz5lu5bTeia-12">
          <mxGeometry relative="1" as="geometry" />
        </mxCell>
        <mxCell id="usrwLXrlUhz5lu5bTeia-5" value="Nodo&lt;br&gt;n_osservazioni = 15" style="rounded=1;whiteSpace=wrap;html=1;fontSize=12;glass=0;strokeWidth=1;shadow=0;" vertex="1" parent="WIyWlLk6GJQsqaUBKTNV-1">
          <mxGeometry x="1176" y="180" width="130" height="60" as="geometry" />
        </mxCell>
        <mxCell id="usrwLXrlUhz5lu5bTeia-6" value="" style="endArrow=classic;html=1;rounded=0;exitX=0.5;exitY=1;exitDx=0;exitDy=0;entryX=0.5;entryY=0;entryDx=0;entryDy=0;" edge="1" parent="WIyWlLk6GJQsqaUBKTNV-1" source="WIyWlLk6GJQsqaUBKTNV-3" target="usrwLXrlUhz5lu5bTeia-4">
          <mxGeometry width="50" height="50" relative="1" as="geometry">
            <mxPoint x="785" y="210" as="sourcePoint" />
            <mxPoint x="830" y="160" as="targetPoint" />
            <Array as="points">
              <mxPoint x="830" y="160" />
              <mxPoint x="760" y="160" />
              <mxPoint x="525" y="160" />
            </Array>
          </mxGeometry>
        </mxCell>
        <mxCell id="usrwLXrlUhz5lu5bTeia-7" value="" style="endArrow=classic;html=1;rounded=0;exitX=0.5;exitY=1;exitDx=0;exitDy=0;entryX=0.5;entryY=0;entryDx=0;entryDy=0;" edge="1" parent="WIyWlLk6GJQsqaUBKTNV-1" source="WIyWlLk6GJQsqaUBKTNV-3" target="usrwLXrlUhz5lu5bTeia-5">
          <mxGeometry width="50" height="50" relative="1" as="geometry">
            <mxPoint x="840" y="130" as="sourcePoint" />
            <mxPoint x="640" y="190" as="targetPoint" />
            <Array as="points">
              <mxPoint x="830" y="160" />
              <mxPoint x="920" y="160" />
              <mxPoint x="1240" y="160" />
            </Array>
          </mxGeometry>
        </mxCell>
        <mxCell id="EAKEIVe63g321pClov08-11" style="edgeStyle=orthogonalEdgeStyle;rounded=0;orthogonalLoop=1;jettySize=auto;html=1;exitX=0.5;exitY=1;exitDx=0;exitDy=0;entryX=0.5;entryY=0;entryDx=0;entryDy=0;" edge="1" parent="WIyWlLk6GJQsqaUBKTNV-1" source="usrwLXrlUhz5lu5bTeia-8" target="EAKEIVe63g321pClov08-1">
          <mxGeometry relative="1" as="geometry" />
        </mxCell>
        <mxCell id="EAKEIVe63g321pClov08-12" style="edgeStyle=orthogonalEdgeStyle;rounded=0;orthogonalLoop=1;jettySize=auto;html=1;exitX=0.5;exitY=1;exitDx=0;exitDy=0;entryX=0.5;entryY=0;entryDx=0;entryDy=0;" edge="1" parent="WIyWlLk6GJQsqaUBKTNV-1" source="usrwLXrlUhz5lu5bTeia-8" target="EAKEIVe63g321pClov08-2">
          <mxGeometry relative="1" as="geometry" />
        </mxCell>
        <mxCell id="usrwLXrlUhz5lu5bTeia-8" value="Foglia&lt;br&gt;n_osservazioni = 7" style="rounded=1;whiteSpace=wrap;html=1;fontSize=12;glass=0;strokeWidth=1;shadow=0;" vertex="1" parent="WIyWlLk6GJQsqaUBKTNV-1">
          <mxGeometry x="270" y="320" width="130" height="60" as="geometry" />
        </mxCell>
        <mxCell id="EAKEIVe63g321pClov08-13" style="edgeStyle=orthogonalEdgeStyle;rounded=0;orthogonalLoop=1;jettySize=auto;html=1;exitX=0.5;exitY=1;exitDx=0;exitDy=0;entryX=0.5;entryY=0;entryDx=0;entryDy=0;" edge="1" parent="WIyWlLk6GJQsqaUBKTNV-1" source="usrwLXrlUhz5lu5bTeia-9" target="EAKEIVe63g321pClov08-3">
          <mxGeometry relative="1" as="geometry" />
        </mxCell>
        <mxCell id="EAKEIVe63g321pClov08-14" style="edgeStyle=orthogonalEdgeStyle;rounded=0;orthogonalLoop=1;jettySize=auto;html=1;exitX=0.5;exitY=1;exitDx=0;exitDy=0;entryX=0.5;entryY=0;entryDx=0;entryDy=0;" edge="1" parent="WIyWlLk6GJQsqaUBKTNV-1" source="usrwLXrlUhz5lu5bTeia-9" target="EAKEIVe63g321pClov08-4">
          <mxGeometry relative="1" as="geometry" />
        </mxCell>
        <mxCell id="usrwLXrlUhz5lu5bTeia-9" value="Foglia&lt;br&gt;n_osservazioni = 8" style="rounded=1;whiteSpace=wrap;html=1;fontSize=12;glass=0;strokeWidth=1;shadow=0;" vertex="1" parent="WIyWlLk6GJQsqaUBKTNV-1">
          <mxGeometry x="635" y="320" width="130" height="60" as="geometry" />
        </mxCell>
        <mxCell id="EAKEIVe63g321pClov08-17" style="edgeStyle=orthogonalEdgeStyle;rounded=0;orthogonalLoop=1;jettySize=auto;html=1;exitX=0.5;exitY=1;exitDx=0;exitDy=0;" edge="1" parent="WIyWlLk6GJQsqaUBKTNV-1" source="usrwLXrlUhz5lu5bTeia-11" target="EAKEIVe63g321pClov08-5">
          <mxGeometry relative="1" as="geometry" />
        </mxCell>
        <mxCell id="EAKEIVe63g321pClov08-18" style="edgeStyle=orthogonalEdgeStyle;rounded=0;orthogonalLoop=1;jettySize=auto;html=1;exitX=0.5;exitY=1;exitDx=0;exitDy=0;" edge="1" parent="WIyWlLk6GJQsqaUBKTNV-1" source="usrwLXrlUhz5lu5bTeia-11" target="EAKEIVe63g321pClov08-6">
          <mxGeometry relative="1" as="geometry" />
        </mxCell>
        <mxCell id="usrwLXrlUhz5lu5bTeia-11" value="Foglia&lt;br&gt;n_osservazioni = 7" style="rounded=1;whiteSpace=wrap;html=1;fontSize=12;glass=0;strokeWidth=1;shadow=0;" vertex="1" parent="WIyWlLk6GJQsqaUBKTNV-1">
          <mxGeometry x="990" y="320" width="130" height="60" as="geometry" />
        </mxCell>
        <mxCell id="EAKEIVe63g321pClov08-19" style="edgeStyle=orthogonalEdgeStyle;rounded=0;orthogonalLoop=1;jettySize=auto;html=1;exitX=0.5;exitY=1;exitDx=0;exitDy=0;entryX=0.5;entryY=0;entryDx=0;entryDy=0;" edge="1" parent="WIyWlLk6GJQsqaUBKTNV-1" source="usrwLXrlUhz5lu5bTeia-12" target="EAKEIVe63g321pClov08-7">
          <mxGeometry relative="1" as="geometry" />
        </mxCell>
        <mxCell id="EAKEIVe63g321pClov08-20" style="edgeStyle=orthogonalEdgeStyle;rounded=0;orthogonalLoop=1;jettySize=auto;html=1;exitX=0.5;exitY=1;exitDx=0;exitDy=0;entryX=0.5;entryY=0;entryDx=0;entryDy=0;" edge="1" parent="WIyWlLk6GJQsqaUBKTNV-1" source="usrwLXrlUhz5lu5bTeia-12" target="EAKEIVe63g321pClov08-8">
          <mxGeometry relative="1" as="geometry" />
        </mxCell>
        <mxCell id="usrwLXrlUhz5lu5bTeia-12" value="Foglia&lt;br&gt;n_osservazioni = 8" style="rounded=1;whiteSpace=wrap;html=1;fontSize=12;glass=0;strokeWidth=1;shadow=0;" vertex="1" parent="WIyWlLk6GJQsqaUBKTNV-1">
          <mxGeometry x="1340" y="320" width="130" height="60" as="geometry" />
        </mxCell>
        <mxCell id="EAKEIVe63g321pClov08-1" value="Foglia&lt;br&gt;n_osservazioni = 3" style="rounded=1;whiteSpace=wrap;html=1;fontSize=12;glass=0;strokeWidth=1;shadow=0;" vertex="1" parent="WIyWlLk6GJQsqaUBKTNV-1">
          <mxGeometry x="190" y="450" width="130" height="60" as="geometry" />
        </mxCell>
        <mxCell id="EAKEIVe63g321pClov08-2" value="Foglia&lt;br&gt;n_osservazioni = 4" style="rounded=1;whiteSpace=wrap;html=1;fontSize=12;glass=0;strokeWidth=1;shadow=0;" vertex="1" parent="WIyWlLk6GJQsqaUBKTNV-1">
          <mxGeometry x="349" y="450" width="130" height="60" as="geometry" />
        </mxCell>
        <mxCell id="EAKEIVe63g321pClov08-3" value="Foglia&lt;br&gt;n_osservazioni = 4" style="rounded=1;whiteSpace=wrap;html=1;fontSize=12;glass=0;strokeWidth=1;shadow=0;" vertex="1" parent="WIyWlLk6GJQsqaUBKTNV-1">
          <mxGeometry x="557.5" y="450" width="130" height="60" as="geometry" />
        </mxCell>
        <mxCell id="EAKEIVe63g321pClov08-4" value="Foglia&lt;br&gt;n_osservazioni = 4" style="rounded=1;whiteSpace=wrap;html=1;fontSize=12;glass=0;strokeWidth=1;shadow=0;" vertex="1" parent="WIyWlLk6GJQsqaUBKTNV-1">
          <mxGeometry x="712.5" y="450" width="130" height="60" as="geometry" />
        </mxCell>
        <mxCell id="EAKEIVe63g321pClov08-5" value="Foglia&lt;br&gt;n_osservazioni = 3" style="rounded=1;whiteSpace=wrap;html=1;fontSize=12;glass=0;strokeWidth=1;shadow=0;" vertex="1" parent="WIyWlLk6GJQsqaUBKTNV-1">
          <mxGeometry x="910" y="450" width="130" height="60" as="geometry" />
        </mxCell>
        <mxCell id="EAKEIVe63g321pClov08-6" value="Foglia&lt;br&gt;n_osservazioni = 4" style="rounded=1;whiteSpace=wrap;html=1;fontSize=12;glass=0;strokeWidth=1;shadow=0;" vertex="1" parent="WIyWlLk6GJQsqaUBKTNV-1">
          <mxGeometry x="1080" y="450" width="130" height="60" as="geometry" />
        </mxCell>
        <mxCell id="EAKEIVe63g321pClov08-7" value="Foglia&lt;br&gt;n_osservazioni = 4" style="rounded=1;whiteSpace=wrap;html=1;fontSize=12;glass=0;strokeWidth=1;shadow=0;" vertex="1" parent="WIyWlLk6GJQsqaUBKTNV-1">
          <mxGeometry x="1265" y="450" width="130" height="60" as="geometry" />
        </mxCell>
        <mxCell id="EAKEIVe63g321pClov08-8" value="Foglia&lt;br&gt;n_osservazioni = 4" style="rounded=1;whiteSpace=wrap;html=1;fontSize=12;glass=0;strokeWidth=1;shadow=0;" vertex="1" parent="WIyWlLk6GJQsqaUBKTNV-1">
          <mxGeometry x="1415" y="450" width="130" height="60" as="geometry" />
        </mxCell>
      </root>
    </mxGraphModel>
  </diagram>
</mxfile>
